<?xml version="1.0" standalone="no"?><!DOCTYPE svg PUBLIC "-//W3C//DTD SVG 1.1//EN" "http://www.w3.org/Graphics/SVG/1.1/DTD/svg11.dtd"><svg t="1556367661041" class="icon" style="" viewBox="0 0 1024 1024" version="1.1" xmlns="http://www.w3.org/2000/svg" p-id="14139" xmlns:xlink="http://www.w3.org/1999/xlink" width="16" height="16"><defs><style type="text/css"></style></defs><path d="M728.178 113.778c-130.845 0-210.49 102.4-210.49 102.4s-68.266-102.4-210.488-102.4S56.889 193.422 56.889 386.844c0 273.067 460.8 568.89 460.8 568.89s449.422-312.89 449.422-563.2c0-204.8-130.844-278.756-238.933-278.756m-210.49 773.689s-403.91-278.756-403.91-500.623c0-142.222 96.71-221.866 204.8-221.866 108.089 0 199.11 119.466 199.11 119.466s108.09-119.466 204.8-119.466c96.712 0 193.423 73.955 193.423 227.555-5.689 216.178-398.222 494.934-398.222 494.934" fill="#515151" p-id="14140"></path></svg>