<?xml version="1.0" standalone="no"?><!DOCTYPE svg PUBLIC "-//W3C//DTD SVG 1.1//EN" "http://www.w3.org/Graphics/SVG/1.1/DTD/svg11.dtd"><svg t="1556112979121" class="icon" style="" viewBox="0 0 1024 1024" version="1.1" xmlns="http://www.w3.org/2000/svg" p-id="13390" xmlns:xlink="http://www.w3.org/1999/xlink" width="32" height="32"><defs><style type="text/css"></style></defs><path d="M1014.5 969L766.8 723.5c63.9-75.6 102.6-173.2 102.6-279.7 0-239.4-194.8-434.2-434.2-434.2S1 204.4 1 443.8 195.7 878 435.2 878c110 0 210.2-41.4 286.8-109.1l247.7 245.3c6.2 6.2 14.3 9.2 22.5 9.2s16.4-3.2 22.7-9.4c12.3-12.4 12.2-32.6-0.4-45zM64.8 443.8C64.8 239.6 231 73.4 435.2 73.4s370.4 166.2 370.4 370.4-166.2 370.4-370.4 370.4C230.9 814.2 64.8 648 64.8 443.8z" p-id="13391" fill="#ffffff"></path></svg>